<?xml version="1.0" encoding="UTF-8" standalone="no"?>
<!-- Created with Inkscape (http://www.inkscape.org/) -->

<svg
   width="120"
   height="120"
   viewBox="0 0 120 120"
   version="1.1"
   id="svg5"
   xmlns="http://www.w3.org/2000/svg"
   xmlns:svg="http://www.w3.org/2000/svg">
  <defs
     id="defs2" />
  <g
     id="layer2"
     style="display:none">
    <text
       xml:space="preserve"
       style="font-size:113.333px;line-height:1.35;font-family:sans-serif;-inkscape-font-specification:sans-serif;fill:#b6babf;fill-opacity:1;stroke-width:1.77084"
       x="124.40628"
       y="106.73732"
       id="text1329"
       transform="translate(-1.8435117,3.2439826)"><tspan
         id="tspan1327"
         x="124.40628"
         y="106.73732"
         style="font-style:normal;font-variant:normal;font-weight:normal;font-stretch:normal;font-size:113.333px;font-family:'JetBrainsMono Nerd Font';-inkscape-font-specification:'JetBrainsMono Nerd Font';fill:#b6babf;fill-opacity:1;stroke-width:1.77084">GT5</tspan></text>
  </g>
  <g
     id="layer1">
    <g
       id="g4474"
       transform="translate(-1.8435117,3.2439826)">
      <g
         id="g827"
         style="fill:#b6babf;fill-opacity:1"
         transform="matrix(1.0977531,0,0,1.0977531,-6.0453949,-4.4334445)">
        <path
           id="path2685"
           style="fill:#b6babf;fill-opacity:1;stroke:none;stroke-width:0.181406;stroke-opacity:1"
           d="m 29.058325,37.045787 c -7.15792,1.58759 -13.21161,6.74488 -15.26172,13.90429 -0.0873,0.30476 -0.19122,0.66087 -0.30859,1.0625 -3.8372704,13.1539 -8.2295904,31.87581 -2.10352,42.5586 2.12244,3.70067 5.28042,6.101563 9.38672,7.130863 a 19.38264,19.38264 0 0 0 4.72656,0.58398 c 9.46321,0 18.71913,-6.895173 24.07422,-18.205083 h 14.24414 c 2.59791,5.94357 5.28698,10.14953 8.37305,13.11914 3.53015,3.397183 7.52815,5.103713 11.93359,5.103523 a 19.172391,19.172391 0 0 0 4.66992,-0.60156 c 4.10612,-1.02948 7.26428,-3.430193 9.38672,-7.130863 0.4464,-0.77848 0.82901,-1.60429 1.16797,-2.46289 -0.77471,0.45799 -1.56205,0.87404 -2.37109,1.20898 -3.15775,1.30701 -6.32931,1.52705 -9.46094,0.69922 -0.19661,0.06488 -0.39665,0.12733 -0.60547,0.17969 -4.8165,1.20708 -10.59387,0.31917 -16.93164,-15.42774 a 3.8691992,3.8691992 0 0 0 -3.58789,-2.42578 h -19.34766 a 3.8691992,3.8691992 0 0 0 -3.58789,2.42578 c -3.63483,9.03091 -11.69404,17.71092 -20.80078,15.42774 -2.04317,-0.51228 -3.49161,-1.61561 -4.55664,-3.47266 -3.44816,-6.01323 -2.49941,-18.30809 2.82031,-36.54297 0.12118,-0.41542 0.22802,-0.7845 0.31836,-1.09961 1.03024,-3.59777 3.75128,-6.36333 7.17188,-7.77734 -0.31203,-1.6082 -0.36447,-3.28672 -0.12305,-5.03906 0.14808,-1.07436 0.43166,-2.14817 0.77344,-3.21875 z" />
        <path
           style="fill:#b6babf;fill-opacity:1;stroke-width:0.181406"
           d="m 94.017515,86.167087 c -1.97788,0.81885 -3.79823,0.80723 -5.72841,-0.0362 -4.54979,-1.98874 -8.57951,-6.22321 -3.9702,-22.55988 a 3.8691992,3.8691992 0 0 0 -1.35875,-4.11277 l -15.31118,-11.8252 a 3.8691992,3.8691992 0 0 0 -4.32267,-0.27511 c -8.39687,4.92564 -20.0811,6.86931 -25.89295,-0.50416 -1.30391,-1.65433 -1.77511,-3.41252 -1.4829,-5.53326 0.94656,-6.86679 9.2127,-16.01757 24.56896,-27.197713 0.34983,-0.254708 0.65956,-0.480339 0.92366,-0.674503 5.33506,-3.9248671 13.27104,-2.557088 17.68939,3.049532 a 13.203604,13.203604 0 0 1 2.44725,4.90074 3.8682922,3.8682922 0 0 0 1.38176,2.097232 l 16.41941,12.681102 a 3.8682922,3.8682922 0 0 0 2.378375,0.80682 13.203604,13.203604 0 0 1 5.36017,1.12911 c 6.54149,2.85907 9.87053,10.1904 7.42155,16.34426 v 0 c -0.1207,0.30468 -0.26116,0.66104 -0.41917,1.06389 -6.93577,17.68373 -13.70015,27.99435 -20.104725,30.64578 z"
           id="path4350" />
      </g>
    </g>
  </g>
</svg>
